<mxfile host="65bd71144e">
    <diagram id="A30vLjAk9ZLqgh_WzyPH" name="Page-1">
        <mxGraphModel dx="1026" dy="472" grid="1" gridSize="10" guides="1" tooltips="1" connect="1" arrows="1" fold="1" page="1" pageScale="1" pageWidth="827" pageHeight="1169" math="0" shadow="0">
            <root>
                <mxCell id="0"/>
                <mxCell id="1" parent="0"/>
                <mxCell id="3" value="Kunde" style="shape=umlActor;verticalLabelPosition=bottom;verticalAlign=top;html=1;" parent="1" vertex="1">
                    <mxGeometry x="40" y="300" width="30" height="60" as="geometry"/>
                </mxCell>
                <mxCell id="8" value="Karte kaufen" style="ellipse;whiteSpace=wrap;html=1;" parent="1" vertex="1">
                    <mxGeometry x="180" y="295" width="140" height="70" as="geometry"/>
                </mxCell>
                <mxCell id="9" value="reservierte Karten abholen" style="ellipse;whiteSpace=wrap;html=1;" parent="1" vertex="1">
                    <mxGeometry x="530" y="235" width="140" height="70" as="geometry"/>
                </mxCell>
                <mxCell id="10" value="Pocorn + Cola&lt;br&gt;dazubestellen" style="ellipse;whiteSpace=wrap;html=1;" parent="1" vertex="1">
                    <mxGeometry x="530" y="375" width="140" height="70" as="geometry"/>
                </mxCell>
                <mxCell id="15" value="extend" style="endArrow=open;endSize=12;dashed=1;html=1;exitX=0;exitY=0.5;exitDx=0;exitDy=0;entryX=0.304;entryY=0.286;entryDx=0;entryDy=0;entryPerimeter=0;" parent="1" source="9" edge="1">
                    <mxGeometry x="0.0303" width="160" relative="1" as="geometry">
                        <mxPoint x="620" y="39.5" as="sourcePoint"/>
                        <mxPoint x="319.76" y="325.1" as="targetPoint"/>
                        <Array as="points"/>
                        <mxPoint as="offset"/>
                    </mxGeometry>
                </mxCell>
                <mxCell id="16" value="extend" style="endArrow=open;endSize=12;dashed=1;html=1;exitX=0;exitY=0;exitDx=0;exitDy=0;entryX=1;entryY=0.5;entryDx=0;entryDy=0;" parent="1" source="10" target="8" edge="1">
                    <mxGeometry x="-0.057" width="160" relative="1" as="geometry">
                        <mxPoint x="290" y="235" as="sourcePoint"/>
                        <mxPoint x="-40" y="235" as="targetPoint"/>
                        <Array as="points"/>
                        <mxPoint as="offset"/>
                    </mxGeometry>
                </mxCell>
                <mxCell id="17" value="extends" style="endArrow=open;endSize=12;dashed=1;html=1;exitX=0;exitY=0.5;exitDx=0;exitDy=0;entryX=1;entryY=0.5;entryDx=0;entryDy=0;" edge="1" parent="1" source="19" target="18">
                    <mxGeometry width="160" relative="1" as="geometry">
                        <mxPoint x="430" y="130" as="sourcePoint"/>
                        <mxPoint x="90" y="130" as="targetPoint"/>
                        <Array as="points"/>
                        <mxPoint as="offset"/>
                    </mxGeometry>
                </mxCell>
                <mxCell id="18" value="Rechnung&lt;br&gt;bezahlen" style="ellipse;whiteSpace=wrap;html=1;" vertex="1" parent="1">
                    <mxGeometry x="180" y="515" width="140" height="70" as="geometry"/>
                </mxCell>
                <mxCell id="19" value="Kreditkarte" style="ellipse;whiteSpace=wrap;html=1;" vertex="1" parent="1">
                    <mxGeometry x="420" y="515" width="140" height="70" as="geometry"/>
                </mxCell>
                <mxCell id="20" value="Karte&lt;br&gt;prÃ¼fen" style="ellipse;whiteSpace=wrap;html=1;" vertex="1" parent="1">
                    <mxGeometry x="660" y="515" width="140" height="70" as="geometry"/>
                </mxCell>
                <mxCell id="22" value="include" style="endArrow=open;endSize=12;dashed=1;html=1;exitX=0.5;exitY=1;exitDx=0;exitDy=0;entryX=0.5;entryY=0;entryDx=0;entryDy=0;" edge="1" parent="1" source="8" target="18">
                    <mxGeometry x="0.0303" width="160" relative="1" as="geometry">
                        <mxPoint x="260" y="385" as="sourcePoint"/>
                        <mxPoint x="-70" y="385" as="targetPoint"/>
                        <Array as="points"/>
                        <mxPoint as="offset"/>
                    </mxGeometry>
                </mxCell>
                <mxCell id="23" value="include" style="endArrow=open;endSize=12;dashed=1;html=1;entryX=0;entryY=0.5;entryDx=0;entryDy=0;exitX=1;exitY=0.5;exitDx=0;exitDy=0;" edge="1" parent="1" source="19" target="20">
                    <mxGeometry width="160" relative="1" as="geometry">
                        <mxPoint x="600" y="620" as="sourcePoint"/>
                        <mxPoint x="340" y="480" as="targetPoint"/>
                        <Array as="points"/>
                        <mxPoint as="offset"/>
                    </mxGeometry>
                </mxCell>
                <mxCell id="24" value="Kino" style="shape=umlFrame;whiteSpace=wrap;html=1;" vertex="1" parent="1">
                    <mxGeometry x="150" y="210" width="660" height="400" as="geometry"/>
                </mxCell>
                <mxCell id="27" value="" style="line;strokeWidth=1;fillColor=none;align=left;verticalAlign=middle;spacingTop=-1;spacingLeft=3;spacingRight=3;rotatable=0;labelPosition=right;points=[];portConstraint=eastwest;" vertex="1" parent="1">
                    <mxGeometry x="60" y="326" width="120" height="8" as="geometry"/>
                </mxCell>
            </root>
        </mxGraphModel>
    </diagram>
</mxfile>